<?xml version="1.0" standalone="no"?><!DOCTYPE svg PUBLIC "-//W3C//DTD SVG 1.1//EN" "http://www.w3.org/Graphics/SVG/1.1/DTD/svg11.dtd"><svg t="1631693662844" class="icon" viewBox="0 0 1024 1024" version="1.1" xmlns="http://www.w3.org/2000/svg" p-id="8024" xmlns:xlink="http://www.w3.org/1999/xlink" width="48" height="48"><defs><style type="text/css"></style></defs><path d="M772.2 654.3H425.6c-58.6 0-109.8-39.2-124.4-95.2l-90.5-346c-4.4-16.9-20.1-28.7-38.2-28.7h-65c-24.6 0-44.6-20-44.6-44.6s20-44.6 44.6-44.6h65c58.6 0 109.8 39.2 124.4 95.3l90.5 346c4.4 16.9 20.1 28.6 38.2 28.6h346.5c18.5 0 34.3-12.1 38.4-29.5l53.6-226.1c3.6-15-2.9-26.1-7-31.3-7.5-9.5-19-15-31.4-15H406.1c-24.6 0-44.6-20-44.6-44.6s20-44.6 44.6-44.6h419.7c39.8 0 76.7 17.8 101.3 48.8 24.1 30.5 32.8 69.5 23.9 107.2l-53.6 226.1c-13.8 57.9-65.3 98.2-125.2 98.2zM378.5 929.2c-69.4 0-125.8-56.5-125.8-125.9s56.4-125.9 125.8-125.9 125.9 56.5 125.9 125.9c-0.1 69.5-56.5 125.9-125.9 125.9z m0-162.6c-20.2 0-36.7 16.5-36.7 36.7 0 20.3 16.5 36.7 36.7 36.7 20.3 0 36.7-16.5 36.7-36.7 0-20.2-16.5-36.7-36.7-36.7zM769.8 929.2c-69.4 0-125.8-56.5-125.8-125.9s56.4-125.9 125.8-125.9 125.9 56.5 125.9 125.9c0 69.5-56.5 125.9-125.9 125.9z m0-162.6c-20.2 0-36.7 16.5-36.7 36.7 0 20.3 16.5 36.7 36.7 36.7 20.3 0 36.7-16.5 36.7-36.7 0.1-20.2-16.4-36.7-36.7-36.7z" fill="#2c2c2c" p-id="8025"></path><path d="M682.2 455.2H506c-24.6 0-44.6-20-44.6-44.6s20-44.6 44.6-44.6h176.2c24.6 0 44.6 20 44.6 44.6-0.1 24.7-20 44.6-44.6 44.6z" fill="#2c2c2c" p-id="8026"></path></svg>