<?xml version="1.0" standalone="no"?><!DOCTYPE svg PUBLIC "-//W3C//DTD SVG 1.1//EN" "http://www.w3.org/Graphics/SVG/1.1/DTD/svg11.dtd"><svg t="1631696410055" class="icon" viewBox="0 0 1024 1024" version="1.1" xmlns="http://www.w3.org/2000/svg" p-id="3908" xmlns:xlink="http://www.w3.org/1999/xlink" width="48" height="48"><defs><style type="text/css"></style></defs><path d="M687.829333 85.333333c-62.08 0-118.442667 23.253333-165.418666 67.84C475.178667 108.117333 419.754667 85.333333 357.034667 85.333333 207.189333 85.333333 85.333333 215.808 85.333333 376.192c0 93.952 41.898667 159.274667 72.618667 207.189333 71.893333 113.066667 220.714667 230.442667 303.061333 290.346667l3.84 2.773333a92.16 92.16 0 0 0 57.088 19.498667c19.754667 0 39.04-6.4 55.808-18.517333l1.066667-0.810667a291.413333 291.413333 0 0 1 3.968-2.901333c82.304-59.989333 231.168-177.493333 303.786667-290.602667 30.549333-47.701333 72.448-113.066667 72.448-206.933333C959.018667 215.765333 837.376 85.333333 687.786667 85.333333z" p-id="3909" fill="#e23e29"></path></svg>