<?xml version="1.0" standalone="no"?><!DOCTYPE svg PUBLIC "-//W3C//DTD SVG 1.1//EN" "http://www.w3.org/Graphics/SVG/1.1/DTD/svg11.dtd"><svg t="1631692805750" class="icon" viewBox="0 0 1024 1024" version="1.1" xmlns="http://www.w3.org/2000/svg" p-id="6068" width="48" height="48" xmlns:xlink="http://www.w3.org/1999/xlink"><defs><style type="text/css"></style></defs><path d="M879 877.9c-24.8 0-44.9-20.1-44.9-44.9V475c0-178-144.8-322.8-322.8-322.8S188.6 297.1 188.6 475v358c0 24.8-20.1 44.9-44.9 44.9S98.9 857.8 98.9 833V475c0-227.4 185-412.5 412.5-412.5s412.5 185 412.5 412.5v358c-0.1 24.8-20.2 44.9-44.9 44.9z" fill="#333333" p-id="6069"></path><path d="M787.7 959.6h-44.6c-73.7 0-133.6-59.9-133.6-133.6V697.1c0-73.7 59.9-133.6 133.6-133.6h180.7v259.9c0 75.1-61 136.2-136.1 136.2z m-44.6-306.4c-24.2 0-43.9 19.7-43.9 43.9v128.8c0 24.2 19.7 43.9 43.9 43.9h44.6c25.6 0 46.4-20.8 46.4-46.4V653.2h-91zM281.7 959.6h-48.8c-73.9 0-134-60.1-134-134v-262h182.8c72.5 0 131.6 59 131.6 131.6v133c-0.1 72.3-59.1 131.4-131.6 131.4z m-93.1-306.4v172.3c0 24.5 19.9 44.3 44.3 44.3h48.8c23.1 0 41.9-18.8 41.9-41.9V695c0-23.1-18.8-41.9-41.9-41.9h-93.1z" fill="#333333" p-id="6070"></path></svg>