<?xml version="1.0" standalone="no"?><!DOCTYPE svg PUBLIC "-//W3C//DTD SVG 1.1//EN" "http://www.w3.org/Graphics/SVG/1.1/DTD/svg11.dtd"><svg t="1632449908556" class="icon" viewBox="0 0 1024 1024" version="1.1" xmlns="http://www.w3.org/2000/svg" p-id="6491" xmlns:xlink="http://www.w3.org/1999/xlink" width="32" height="32"><defs><style type="text/css"></style></defs><path d="M804.93568 147.70176c-154.33728-153.22112-404.22912-153.22112-558.55616 0-154.45504 153.46688-154.45504 402.37056 0 555.71968l279.27552 277.55008 279.28064-277.55008c154.45504-153.344 154.45504-402.2528 0-555.71968z m26.04032 280.1408c0 168.56576-136.7552 305.32608-305.32096 305.32608-168.56064 0-305.32096-136.76032-305.32096-305.32608s136.7552-305.32096 305.32096-305.32096S830.976 259.28192 830.976 427.84256z" p-id="6492" fill="#1296db"></path><path d="M644.17792 388.33664h-79.01696V309.31968a39.46496 39.46496 0 0 0-39.51104-39.50592 39.46496 39.46496 0 0 0-39.51104 39.50592v79.01696H407.12704a39.46496 39.46496 0 0 0-39.50592 39.51104 39.46496 39.46496 0 0 0 39.50592 39.50592H486.144v79.01696a39.47008 39.47008 0 0 0 39.51104 39.51104 39.46496 39.46496 0 0 0 39.51104-39.51104V467.3536h79.01696a39.46496 39.46496 0 0 0 39.51104-39.50592 39.4752 39.4752 0 0 0-39.51616-39.51104z" p-id="6493" fill="#1296db"></path></svg>