<?xml version="1.0" standalone="no"?><!DOCTYPE svg PUBLIC "-//W3C//DTD SVG 1.1//EN" "http://www.w3.org/Graphics/SVG/1.1/DTD/svg11.dtd"><svg t="1632449804937" class="icon" viewBox="0 0 1024 1024" version="1.1" xmlns="http://www.w3.org/2000/svg" p-id="6085" xmlns:xlink="http://www.w3.org/1999/xlink" width="32" height="32"><defs><style type="text/css"></style></defs><path d="M517.25824 791.33184c-39.36256-3.70688-74.78784-28.22144-92.46208-63.9744a1.792 1.792 0 0 1 0.59904-2.26304 1.7408 1.7408 0 0 1 1.14688-0.29184 1.80736 1.80736 0 0 1 1.13152 0.55296c0.9472 0.96768 22.53824 22.57408 73.91744 27.44832 10.57792 0.95744 21.27872 1.2032 31.8208 0.7424 74.35264-3.00032 96.55808-31.8976 97.46944-33.13152a1.8944 1.8944 0 0 1 1.68448-0.77824 1.73056 1.73056 0 0 1 1.37728 2.41664c-7.3984 17.09568-38.95296 68.13184-102.93248 69.74464a115.23072 115.23072 0 0 1-13.75232-0.46592z" p-id="6086" fill="#1296db"></path><path d="M490.85952 968.97536c-34.048 0-61.7472-26.97728-61.7472-60.1344 0-33.17248 27.6992-60.16 61.7472-60.16 25.48224 0 48 15.0272 57.36448 38.27712l1.41312 3.51232 3.77344-0.32256c103.69024-17.72032 295.07584-88.17664 326.80448-232.52992l1.11616-5.07904-5.0944-1.03424c-18.69824-3.80928-14.40768-14.61248-25.09824-30.42816l-5.89824-8.73472-3.21536 10.04032c-26.99776 84.29056-84.5824 154.25024-162.14528 196.992l-2.28352 1.31072-0.6656-0.31232a0.96768 0.96768 0 0 1-0.33792-0.6912 1.2288 1.2288 0 0 1 0.22016-0.68608l0.39424-0.384c81.54112-74.61888 82.10432-150.9632 74.34752-242.99008-7.23456-86.03136-56.59648-168.98048-85.38112-210.76992l-2.75968-4.00896-2.688 1.65888a12.91776 12.91776 0 0 0-7.09632-2.11968c-6.42048 0-11.76064 4.52608-12.97408 11.00288-3.13344 29.91616-10.2144 47.10912-12.30848 51.67616-16.9216 36.98688-44.35968 58.46528-83.8912 65.66912-34.81088 6.35904-70.08768 13.37344-104.20224 20.15744-30.21824 6.01088-61.4656 12.22656-92.26752 17.95584-45.22496 8.42752-80.128 59.05408-73.23648 106.2144 14.37696 98.17088 75.904 170.3424 101.76512 194.29376a34.91328 34.91328 0 0 0-2.97984 4.01408c-82.75456-37.47328-148.43392-107.40736-180.61312-192.512l-3.15392-8.3456-5.61664 6.93248c-13.53216 16.7168-33.29024 26.30656-54.20032 26.30656-38.85056 0-70.46144-31.96416-70.46144-71.24992v-150.4768c0-34.5088 34.66752-63.95392 68.32128-70.016l3.456-0.62464 0.66048-3.45088c36.55168-190.20288 191.64672-312.89344 382.8992-312.89344 186.88512 0 336.9472 113.52576 379.57632 298.07104l0.9216 3.968h4.0704c0.46592 0 0.9216-0.03584 1.3824-0.08192h0.13312c19.7376 0 48.128 7.48544 61.78816 21.05344a71.21408 71.21408 0 0 1 21.21216 50.85696v152.2688c0 29.02016-37.90336 55.05536-64.8704 66.32448l-2.56512 1.0752-0.50176 2.73408c-29.94176 165.24288-211.968 257.49504-362.16832 272.28672l-3.38432 0.27648-1.06496 3.23072c-8.2432 25.04704-31.74912 41.87648-58.496 41.87648z m0.01024-79.33952c-11.46368 0-20.7872 8.61696-20.7872 19.2 0 10.5728 9.32352 19.1744 20.7872 19.1744 10.40384 0 17.33632-6.90176 19.58912-13.74208l2.07872-6.31296-2.28864-5.6832c-2.53952-6.29248-9.51296-12.63616-19.3792-12.63616zM124.82048 412.3136c-14.12096 2.5344-24.37632 15.0272-24.37632 29.70112v150.47168c0 16.70656 13.23008 30.29504 29.50144 30.29504 11.6224 0 18.9952-6.95808 22.35904-11.1104l50.5344-62.4128L220.16 625.90976l44.43136 85.6576c-61.75744-162.31424 21.28896-214.82496 75.904-225.00352 30.07488-5.59104 60.72832-11.68896 90.368-17.58208l1.32608-0.26112c34.52416-6.8608 69.87776-13.89056 104.92928-20.29056 26.09664-4.76672 42.752-17.86368 54.00576-42.46528 2.26304-4.92544 6.656-18.57024 8.7296-38.41536l0.21504-2.03264 0.3072-1.6128c4.48-24.13056 24.99584-42.00448 51.05664-44.46208 1.8176-0.17408 3.58912-0.25088 5.30944-0.25088 28.04224 0 42.50112 21.39648 43.10016 22.30784 38.0416 55.22432 75.136 119.90528 88.30464 200.79616 3.80416 23.36768-2.8416 112.86528-2.2272 123.29472l18.70336-60.75904 30.32064-94.66368-36.41856-98.64704c-43.86816-118.82496-157.95712-198.66624-283.87328-198.66624-125.22496 0-239.08352 79.25248-283.32544 197.21728l-28.16 75.0848-50.44736-61.83936a37.67808 37.67808 0 0 0-2.34496-2.27328l-12.11904-11.15648-13.43488 2.42688z m761.52832-1.4848c-1.47456 1.98144-2.51392 3.58912-3.09248 4.77696l-34.80064 94.16704 36.38784 88.00768 0.30208 0.44544a31.488 31.488 0 0 0 19.80928 13.12768l9.93792 2.03776 8.832-3.69664c11.67872-4.86912 19.23072-16.07168 19.23072-28.53376l0.01024-152.25344c0-16.57344-13.17888-30.17216-30.0032-30.95552-1.4592 0.0512-2.3808 0.08192-3.32288 0.08192h-13.76256l-9.52832 12.79488zM514.6624 171.904c143.0016 0 272.52224 90.5984 322.29888 225.43872l4.17792 11.32032 5.23776-10.87488c1.73056-3.59936 3.98848-7.22432 7.10656-11.41248l1.3312-1.78176-0.39424-2.18624c-30.06976-165.888-172.89216-286.28992-339.59424-286.28992-167.81824 0-310.76864 121.3952-339.90656 288.66048l-0.48128 2.75456 2.84672 2.62144c2.5344 2.32448 4.92032 4.51584 6.92736 6.97856l5.632 6.912 3.13344-8.3456c50.20672-133.85728 179.47648-223.7952 321.68448-223.7952z" p-id="6087" fill="#1296db"></path></svg>