<?xml version="1.0" standalone="no"?><!DOCTYPE svg PUBLIC "-//W3C//DTD SVG 1.1//EN" "http://www.w3.org/Graphics/SVG/1.1/DTD/svg11.dtd"><svg t="1632449683383" class="icon" viewBox="0 0 1024 1024" version="1.1" xmlns="http://www.w3.org/2000/svg" p-id="5471" xmlns:xlink="http://www.w3.org/1999/xlink" width="32" height="32"><defs><style type="text/css"></style></defs><path d="M382.19264 235.71968c-21.98528-16.86528-48.24064-25.66656-75.0336-25.15456-74.54208 0-134.97344 66.5856-134.97344 148.73088-0.31744 32.0256 9.09824 63.24224 26.74688 88.68352l0.11776 0.19456c10.99264 14.05952 30.24896 15.63648 43.008 3.52256 11.4176-10.83904 13.93152-29.24544 5.92384-43.3152 0-0.19456-0.11776-0.26112-0.1792-0.384l-1.10592-1.7408c-9.00608-13.62432-13.75232-30.1056-13.52704-46.95552 0-45.08672 33.13152-81.5872 74.04032-81.5872 16.5632 0 31.02208 5.41696 43.3152 15.47776l0.11264-0.13312c14.13632 10.01984 32.9728 5.51424 42.0608-10.06592 9.09312-15.57504 5.00736-36.33152-9.1392-46.35136a19.9168 19.9168 0 0 0-1.36704-0.9216z" p-id="5472" fill="#1296db"></path><path d="M515.70688 938.7776c-16.98304-0.00512-32.47104-12.0576-44.11392-22.656l-154.23488-169.75872h-0.05632l-194.04288-213.56544c-93.17376-102.92224-92.98432-270.17728 0.41472-372.8384 45.12256-49.60768 105.01632-76.928 168.64768-76.928 63.6416 0 123.53024 16.90624 168.6528 66.51392l53.94944 54.17984 8.95488-9.984 1.43872-1.54624 44.34432-43.5968c44.92288-48.95232 104.34048-65.47456 167.47008-65.47456 63.5904 0 123.41248 27.33056 168.43776 76.95872 47.60064 52.44928 71.68 121.78944 69.64224 200.53504l-0.00512 0.85504-0.04608 0.47616-0.05632 1.26464c-0.86016 17.2544-13.04064 31.27296-28.32896 32.60928a27.45344 27.45344 0 0 1-2.42176 0.10752c-15.88224 0-29.33248-13.98784-30.6176-31.8464l-0.10752-1.52064-0.0512-1.60768c0.01024-1.00864 0.09216-2.34496 0.25088-3.67104l0.04608-0.3584 0.00512-0.3584c1.14176-54.81984-18.43712-108.52352-53.68832-147.33312-34.88768-38.33856-81.30048-59.45344-130.69312-59.45344-38.77376 0-75.93984 13.11744-107.47904 37.91872l-23.64416 21.19168-83.48672 81.56672L431.36 208.95232l-23.40352-20.95616c-31.96928-25.38496-69.32992-38.656-108.37504-38.656-38.9632 0-76.26752 13.22496-107.86304 38.23616-82.19136 65.06496-101.07392 191.60576-42.0864 282.07616l0.31232 0.47104 354.47296 394.79296 11.55584 15.1296 9.5744-15.39584 47.55968-53.07904h0.19968l2.2528-2.68288c5.25824-6.44608 12.73344-10.14272 20.50048-10.14272 8.43776-0.00512 16.15872 3.99872 21.4784 10.9824 10.28608 13.4912 8.72448 33.64352-3.47136 44.93312l-0.44544 0.45568-55.61344 61.27104c-14.77632 14.99136-28.68736 22.38976-42.30144 22.38976z" p-id="5473" fill="#1296db"></path><path d="M811.0592 808.64256c-17.80224 0-32.27648-16.28672-32.27648-36.31104v-107.00288h-97.78688c-17.80736 0-32.2816-16.28672-32.2816-36.31104 0-20.0192 14.47424-36.30592 32.2816-36.30592h97.78688v-107.008c0-20.0192 14.47424-36.31104 32.27648-36.31104 17.79712 0 32.27136 16.29184 32.27136 36.31104v107.008h97.78176c17.81248 0 32.30208 16.30208 32.30208 36.34176s-14.48448 36.34688-32.30208 36.34688h-97.78176v106.93632c0 20.02432-14.47424 36.30592-32.27136 36.30592z" p-id="5474" fill="#1296db"></path></svg>