<?xml version="1.0" standalone="no"?><!DOCTYPE svg PUBLIC "-//W3C//DTD SVG 1.1//EN" "http://www.w3.org/Graphics/SVG/1.1/DTD/svg11.dtd"><svg t="1632449438510" class="icon" viewBox="0 0 1024 1024" version="1.1" xmlns="http://www.w3.org/2000/svg" p-id="5275" xmlns:xlink="http://www.w3.org/1999/xlink" width="32" height="32"><defs><style type="text/css"></style></defs><path d="M881.4 559.9l-0.5-2c-22.4-78.1-59.8-144.4-111.2-196.9-22.4-22.9-47.8-43.4-75.5-60.8-5.6-3.6-7.4-10.9-4-16.8 13.5-23.4 18.9-49.2 16.6-78.9-0.5-5.8-1.7-11-3.7-16-15.3-38.8-50.8-66.8-102.8-81.1-33.2-9.1-65.8-10.7-82.5-10.8-0.3 0-0.7 0-1.1-0.1-1.2-0.1-2.4-0.2-3.7-0.2-36.3-0.5-157.2 4.8-191.8 92.9-1.9 5-3 10.1-3.5 15.3-2.3 29.7 3.2 55.6 16.7 79 3.4 5.9 1.6 13.3-4 16.8-27.7 17.5-53.1 38.1-75.6 61.1-51.5 52.8-89.1 119.5-111.6 198.5l-0.4 1.6c-19.8 92.1-0.6 179.4 54 245.8 44.9 54.5 134 119.6 303.7 119.6 3.8 0 7.8 0 11.4-0.1 4 0.1 8 0.1 11.8 0.1 169.7 0 258.9-65 303.7-119.5 55-66.4 74.2-154.3 54-247.5zM420.9 305.6c1.3-10.5-2.9-20.7-11-27.4-23.5-19.2-33.2-40.2-31.3-67.9 19.9-48.3 105-52.7 130.8-52.9h1c1.2 0.1 2.4 0.2 4.9 0.2 18.2 0 109.6 2.5 130.6 52.4 1.9 28-7.8 49-31.2 68.2-8.2 6.7-12.3 16.9-11 27.4 1.3 10.5 7.7 19.4 17.3 23.9C721 377 788.5 459 821.7 573.3l0.3 1.1c15.6 73.9 0.8 142.8-41.6 194.1-36.5 44.4-110.7 97.3-256.6 97.3-3.6 0-7.3 0-11-0.1h-2.5c-3.2 0.1-6.4 0.2-9.8 0.1-145.8 0-220-52.9-256.5-97.3-42.1-51.3-57-119.7-41.7-192.5l0.3-1.1c33.3-115.1 101-197.6 201.1-245.2 9.5-4.6 16-13.6 17.2-24.1z" p-id="5276" fill="#1296db"></path><path d="M611.1 656.9h-73.8v87.5c0 13.7-11.1 25-25 25-13.8 0-25-11.1-25-25v-87.5h-73.8c-13.7 0-25-11.1-25-25 0-13.8 11.1-25 25-25h73.8v-31.2h-65.9c-13.3-0.5-23.9-11.6-23.9-25s10.6-24.4 23.9-25h42.7L422.6 481c-9.1-10.2-8.3-25.6 1.6-34.9 9.9-9.3 25.4-8.8 34.9 0.9l53.1 57.2 53.1-57.2c9.5-9.7 25-10.1 34.9-0.9 9.9 9.3 10.7 24.8 1.6 34.9l-41.6 44.7H603c13.7 0 25 11.2 25 25 0 13.7-11.2 25-25 25h-65.9v31.2H611c13.7 0 25 11.1 25 25 0.1 13.8-11 25-24.9 25z" p-id="5277" fill="#1296db"></path></svg>