<?xml version="1.0" standalone="no"?><!DOCTYPE svg PUBLIC "-//W3C//DTD SVG 1.1//EN" "http://www.w3.org/Graphics/SVG/1.1/DTD/svg11.dtd"><svg class="icon" width="32px" height="19.17px" viewBox="0 0 1709 1024" version="1.1" xmlns="http://www.w3.org/2000/svg"><path d="M1334.81803 367.324421c-43.813778-9.764213-80.366986-37.053938-102.774604-76.861884-22.908347-40.55904-27.665271-88.378649-13.144133-131.31615 6.133929-17.901058-1.251822-37.679849-17.525511-47.31888L1021.612112 5.547801c-16.649235-9.764213-37.679849-6.384293-50.448436 8.136844-30.544462 34.800658-72.230142 53.953538-117.295742 53.953538-45.941875 0-87.377191-19.027698-116.795012-53.577991-12.643404-14.771502-34.049564-18.401787-50.823982-8.512391L506.487269 111.702325c-16.273689 9.639031-23.65944 29.417822-17.525511 47.31888 14.521138 42.937502 9.764213 90.757111-13.144133 131.31615-22.5328 39.682764-58.960826 66.972489-102.774604 76.861884-18.151422 4.131013-31.170373 20.27952-31.170373 39.056853v213.686053c0 18.652151 13.018951 34.92584 31.170373 39.056853 43.688595 9.764213 80.241804 37.053938 102.774604 76.861884 21.906889 39.557582 27.03936 86.626097 14.020409 129.188053-5.382836 17.650693 2.002916 36.678391 17.901057 46.067058L689.754042 1018.397157c16.398871 9.764213 37.429484 6.509476 50.072888-7.761298 29.042275-32.297013 70.727955-50.949164 114.291369-50.949164s85.123911 18.526969 114.291368 50.949164c7.761298 8.762756 18.777333 13.269316 29.793369 13.269315 7.010204 0 14.020409-1.752551 20.27952-5.758382L1200.497506 910.865628c15.898142-9.263484 23.283893-28.291182 18.02624-45.941875-13.144133-43.688595-8.136844-89.630471 13.895227-129.438417 22.5328-39.682764 58.960826-66.972489 102.774604-76.861885 18.151422-4.131013 31.170373-20.27952 31.170373-39.056853V406.381275c-0.250364-18.777333-13.144133-34.92584-31.54592-39.056854z m-31.54592 225.828728c-21.40616 8.136844-41.68568 19.15288-60.33783 32.922925-27.915635 20.780249-50.823982 46.943333-68.224311 77.738159 0 0.125182-0.125182 0.250364-0.125182 0.375547-16.774418 30.168915-27.164542 62.841475-30.920009 97.016222-2.628827 23.409075-2.002916 46.818151 1.877733 69.85168l-135.82271 80.241804c-43.438231-36.177662-98.518409-56.457182-155.726684-56.457182s-112.413635 20.27952-155.977049 56.582364l-135.697528-80.116622c9.388667-56.582364-0.751093-115.918737-29.042275-166.742719 0-0.125182-0.125182-0.250364-0.125183-0.250365-17.400329-30.794827-40.308675-56.957911-68.22431-77.738159-18.652151-13.895227-38.806489-24.911262-60.337831-32.922925v-160.233243c21.531342-8.136844 41.810862-19.278062 60.337831-32.922925 27.915635-20.780249 50.823982-46.943333 68.22431-77.738159 29.793369-52.701715 39.682764-113.289911 28.791911-170.998915l132.067244-78.113707c17.400329 15.147049 36.678391 27.790453 57.959369 37.429485 31.921467 14.64632 66.221395 22.032071 101.898328 22.032071 59.461555 0 115.042462-21.030613 159.607333-59.71192l132.317609 78.238888c-10.765671 57.709004-0.876276 118.547564 28.791911 170.998915 17.400329 30.669644 40.308675 56.832729 68.22431 77.612978 18.652151 13.895227 38.806489 24.911262 60.337831 32.922924v159.982879z" fill="#ffffff" /><path d="M1098.599178 367.449604c-22.657982-40.058311-30.294098-86.500915-22.032071-130.439875l-101.022053-59.71192c-33.924382 29.543004-76.361155 45.566329-121.802302 45.566329-27.289724 0-53.452809-5.6332-77.738159-16.774418-16.148507-7.385751-30.920009-17.024782-44.189325-28.541547L631.04358 237.134911c8.387209 44.064142 0.751093 90.381564-22.032071 130.565057-13.144133 23.283893-30.669644 43.187866-51.950622 59.086009-14.145591 10.515307-29.543004 18.902515-46.067058 25.161626v122.303031c16.398871 6.133929 31.796284 14.521138 46.067058 25.161627 21.280978 15.898142 38.806489 35.802115 52.075804 59.336373 0 0.125182 0.125182 0.125182 0.125182 0.250364 21.531342 38.806489 29.29264 84.122453 22.157253 127.185137l103.65088 61.088925c33.298471-27.665271 75.359697-43.187866 119.048293-43.187867 43.688595 0 85.749822 15.522595 118.797928 43.062684l103.65088-61.214106c-2.879191-17.525511-3.37992-35.426569-1.377005-53.202444 2.879191-26.163084 10.765671-51.074346 23.534258-74.107876 0-0.125182 0.125182-0.125182 0.125182-0.250364 13.269316-23.534258 30.794827-43.438231 52.075805-59.336373 14.270773-10.515307 29.668187-19.027698 46.067057-25.161627v-122.177848c-16.398871-6.133929-31.796284-14.521138-46.067057-25.161627-21.531342-15.77296-39.056853-35.676933-52.326169-59.086008z" fill="#ffffff" /><path d="M853.867934 362.567497c-81.368444 0-147.589839 67.723582-147.589839 150.969759 0 82.870631 66.221395 150.218666 147.589839 150.218667S1001.457774 596.032341 1001.457774 512.786163c0-82.745449-66.221395-150.218666-147.58984-150.218666z" fill="#ffffff" /></svg>