<?xml version="1.0" standalone="no"?><!DOCTYPE svg PUBLIC "-//W3C//DTD SVG 1.1//EN" "http://www.w3.org/Graphics/SVG/1.1/DTD/svg11.dtd"><svg t="1632449730902" class="icon" viewBox="0 0 1170 1024" version="1.1" xmlns="http://www.w3.org/2000/svg" p-id="5680" xmlns:xlink="http://www.w3.org/1999/xlink" width="36.5625" height="32"><defs><style type="text/css"></style></defs><path d="M103.619 387.95c1.658 107.617 43.057 155.16 129.95 155.16 94.404 0 145.457-28.282 161.597-83.87l25.942-89.527 29.842 88.259c19.505 57.539 62.123 85.138 134.632 85.138 72.996 0 118.004-28.087 140.922-86.455l22.43-57.051 30.232 53.345c53.151 93.672 115.42 122.051 194.707 92.063 78.458-29.647 107.276-89.332 88.259-188.855l-139.8-259.755H251.513L103.619 387.998z m129.95 213.674c-123.66 0-188.562-77.921-188.562-220.55v-7.07l155.16-305.737a55.442 55.442 0 0 1 49.494-30.379h674.572c20.383 0 39.107 11.215 48.762 29.16l142.775 265.264 2.926 8.095c25.99 128.634-16.043 218.502-124.1 259.364-93.964 35.5-175.201 8.875-238.494-75.337-36.815 51.103-94.598 77.19-170.472 77.19-72.411 0-127.414-23.893-162.182-70.558-37.059 47.153-101.522 70.558-189.83 70.558z m-115.224 83.773a29.257 29.257 0 1 1 58.514 0v228.304c0 12.678 10.338 23.064 23.114 23.064h754.736a23.064 23.064 0 0 0 23.065-23.064V685.397a29.257 29.257 0 1 1 58.514 0v228.304c0 45.056-36.523 81.578-81.579 81.578H199.973c-45.105 0-81.628-36.571-81.628-81.578V685.397z" p-id="5681" fill="#1296db"></path><path d="M243.76 358.205a29.257 29.257 0 1 1 0-58.514h669.16a29.257 29.257 0 1 1 0 58.514H243.76z" p-id="5682" fill="#1296db"></path></svg>