<?xml version="1.0" standalone="no"?><!DOCTYPE svg PUBLIC "-//W3C//DTD SVG 1.1//EN" "http://www.w3.org/Graphics/SVG/1.1/DTD/svg11.dtd"><svg t="1632283939875" class="icon" viewBox="0 0 1024 1024" version="1.1" xmlns="http://www.w3.org/2000/svg" p-id="1867" width="32" height="32" xmlns:xlink="http://www.w3.org/1999/xlink"><defs><style type="text/css"></style></defs><path d="M679.936 286.72l-114.688 114.688c-16.384 16.384-16.384 40.96 0 57.344 16.384 16.384 40.96 16.384 57.344 0l114.688-114.688 114.688 114.688c16.384 16.384 40.96 16.384 57.344 0 16.384-16.384 16.384-40.96 0-57.344l-114.688-114.688 114.688-114.688c16.384-16.384 16.384-40.96 0-57.344-16.384-16.384-40.96-16.384-57.344 0L737.28 229.376l-114.688-114.688c-16.384-16.384-40.96-16.384-57.344 0-16.384 16.384-16.384 40.96 0 57.344L679.936 286.72zM40.96 0l737.28 0c135.168 0 245.76 110.592 245.76 245.76L1024 983.04 40.96 0z" p-id="1868" fill="#002FA7"></path><path d="M1024 245.76L1024 983.04 40.96 0l737.28 0c135.168 0 245.76 110.592 245.76 245.76zM983.04 884.736L983.04 245.76c0-32.76800001-8.192-61.44-20.48-90.112-4.096 16.384-12.288 32.768-24.576 45.056L851.968 286.72 942.08 372.736c32.768 32.768 32.768 81.92 0 114.688-32.768 32.768-81.92 32.768-114.688 0l-86.01599999-86.016-90.11200001 90.11200001c-12.288 12.288-24.576 20.47999999-40.96 20.47999999L983.04 884.736z m-430.08-454.656c0 12.288 4.096 20.47999999 12.288 28.672 16.384 16.384 40.96 16.384 57.344 0l114.688-114.688 114.688 114.688c16.384 16.384 40.96 16.384 57.344 0 16.384-16.384 16.384-40.96 0-57.344l-114.688-114.688 114.688-114.688c16.384-16.384 16.384-40.96 0-57.344-16.384-16.384-40.96-16.384-57.344 0L737.28 229.376l-114.688-114.688c-16.384-16.384-40.96-16.384-57.344 0-16.384 16.384-16.384 40.96 0 57.344L679.936 286.72l-114.688 114.688c-8.192 8.192-12.288 20.48-12.288 28.672z m184.32-258.048l86.016-86.016c12.288-12.288 28.672-20.48 45.056-24.576-28.672-12.288-57.344-20.48-90.112-20.48L139.264 40.96l372.736 372.736c4.096-16.384 12.288-28.672 20.47999999-40.96l86.016-86.016-86.016-86.016c-32.768-32.768-32.768-81.92 1e-8-114.688 32.768-32.768 81.92-32.768 114.688 0L737.28 172.032z" p-id="1869" fill="#002FA7"></path></svg>